<svg xmlns="http://www.w3.org/2000/svg" viewBox="0 0 504 504"><title>Purdue_FW_Primary_SpiritMark_B_RGB_Wbkg</title><metadata><?xpacket begin="﻿" id="W5M0MpCehiHzreSzNTczkc9d"?>
<x:xmpmeta xmlns:x="adobe:ns:meta/" x:xmptk="Adobe XMP Core 5.6-c143 79.161356, 2017/09/07-01:11:22        ">
   <rdf:RDF xmlns:rdf="http://www.w3.org/1999/02/22-rdf-syntax-ns#">
      <rdf:Description rdf:about=""
            xmlns:dc="http://purl.org/dc/elements/1.1/"
            xmlns:xmp="http://ns.adobe.com/xap/1.0/"
            xmlns:xmpMM="http://ns.adobe.com/xap/1.0/mm/"
            xmlns:stEvt="http://ns.adobe.com/xap/1.0/sType/ResourceEvent#">
         <dc:title>
            <rdf:Alt>
               <rdf:li xml:lang="x-default">Purdue_FW_Primary_SpiritMark_B_RGB_Wbkg</rdf:li>
            </rdf:Alt>
         </dc:title>
         <dc:subject>
            <rdf:Bag>
               <rdf:li>spirit mark</rdf:li>
               <rdf:li>primary</rdf:li>
               <rdf:li>digital</rdf:li>
               <rdf:li>black</rdf:li>
               <rdf:li>svg</rdf:li>
            </rdf:Bag>
         </dc:subject>
         <xmp:MetadataDate>2018-10-12T10:10:56-04:00</xmp:MetadataDate>
         <xmpMM:InstanceID>xmp.iid:ef5e309e-7029-42c5-beb7-2b36b2430f33</xmpMM:InstanceID>
         <xmpMM:DocumentID>xmp.did:d0b9525d-d56b-471c-a65e-def601ea778d</xmpMM:DocumentID>
         <xmpMM:OriginalDocumentID>xmp.did:d0b9525d-d56b-471c-a65e-def601ea778d</xmpMM:OriginalDocumentID>
         <xmpMM:History>
            <rdf:Seq>
               <rdf:li>
                  <rdf:Description>
                     <stEvt:action>saved</stEvt:action>
                     <stEvt:instanceID>xmp.iid:d0b9525d-d56b-471c-a65e-def601ea778d</stEvt:instanceID>
                     <stEvt:when>2018-10-12T10:10:19-04:00</stEvt:when>
                     <stEvt:softwareAgent>Adobe Bridge CC 2018 (Macintosh)</stEvt:softwareAgent>
                     <stEvt:changed>/metadata</stEvt:changed>
                  </rdf:Description>
               </rdf:li>
               <rdf:li>
                  <rdf:Description>
                     <stEvt:action>saved</stEvt:action>
                     <stEvt:instanceID>xmp.iid:ef5e309e-7029-42c5-beb7-2b36b2430f33</stEvt:instanceID>
                     <stEvt:when>2018-10-12T10:10:56-04:00</stEvt:when>
                     <stEvt:softwareAgent>Adobe Bridge CC 2018 (Macintosh)</stEvt:softwareAgent>
                     <stEvt:changed>/metadata</stEvt:changed>
                  </rdf:Description>
               </rdf:li>
            </rdf:Seq>
         </xmpMM:History>
      </rdf:Description>
   </rdf:RDF>
</x:xmpmeta>
                                                                                                    
                                                                                                    
                                                                                                    
                                                                                                    
                                                                                                    
                                                                                                    
                                                                                                    
                                                                                                    
                                                                                                    
                                                                                                    
                                                                                                    
                                                                                                    
                                                                                                    
                                                                                                    
                                                                                     
<?xpacket end="w"?></metadata>
<g id="B_RGB_Wbkg"><path d="M417.67,255.45A162.88,162.88,0,0,0,291.43,117.53a157.11,157.11,0,0,0-17.14-2.86,165.31,165.31,0,0,1,47.2,16.27,162,162,0,0,1,71.07,74,157.7,157.7,0,0,1-53,197.81c-2.93,2-6,3.9-9,5.72a137.84,137.84,0,0,0-19.3-42.76s12.61-18.38,17.58-50.76c2.2-14.35,8-26.09,20.62-32.47l.62,5.72c16.6-3.38,22.86-15.31,22.86-15.31l4,4.7s15.34-21,9.37-42.79c-5.66-20.65-30.42-23.9-30.42-23.9-.29-17.45-19.59-28-19.59-28l1.84,6.55c-4.19-6.38-16.45-7.72-16.45-7.72l6.38,6c-39.1-11.58-52.55,23.67-94.34,8.23-31.88-11.78-27.86-37.93-17.45-50.35,7.44-8.89,19.67-20,26.85-32.06a38.85,38.85,0,0,0,5.54-14.77c2.26-18-2.55-27.7-5.47-31.76-3.48-4.84-11.48-3.65-14-1.3s1.34,2.68-.67,5.71A6.81,6.81,0,0,1,226,73.61a3.67,3.67,0,0,0-1.39,5.12c2,3.25,5.49,7.92,4,17.93-1.61,8.24-11,14.83-21.41,22.9-13,10.09-27.6,22.49-30.49,43.36a79.73,79.73,0,0,0-.19,23,62.9,62.9,0,0,0,8.89,23.6c1.22,2.09,2.55,4.16,4,6.23s3.23,4.4,5,6.57l.06.08c1.64,2.15,3.62,4.71,6.09,7.53-18.71-5.52-40.48-14.25-52.5-25.51,3,6.21,24.84,41.73,66.65,49.17l1.11.18,4,.55c-12,11.7-36.12,24.35-47.25,32.21a99.32,99.32,0,0,0-34.9,43.79A168.83,168.83,0,0,0,127.39,370a158.27,158.27,0,0,1-23.87-42.39,160.63,160.63,0,0,1-7.22-26.16,147,147,0,0,1-2.69-26.71,158.56,158.56,0,0,1,7.63-52c.57-2.11,1.4-4.12,2.14-6.15s1.46-4.08,2.31-6.07c1.81-3.92,3.37-8,5.46-11.71,1-1.9,2-3.82,3-5.7l3.3-5.49,1.64-2.74,1.81-2.63,3.6-5.26c2.34-3.18,4.79-6.25,7.33-9.24.8-.92,1.59-1.84,2.41-2.74l.18-.2a172,172,0,0,1,25.27-23.23A167.08,167.08,0,0,0,121.89,175q-2,2.57-4,5.13l-2,2.59-1.85,2.7-3.7,5.44c-1.16,1.87-2.26,3.78-3.39,5.68-2.37,3.74-4.21,7.8-6.29,11.76-1,2-1.81,4.1-2.72,6.15s-1.84,4.11-2.55,6.26a161.86,161.86,0,0,0-10.47,54.05,153.81,153.81,0,0,0,1.72,28.36,168.68,168.68,0,0,0,6.72,28.13A166.85,166.85,0,0,0,226.6,442.8,167,167,0,0,0,417.67,255.45ZM318.62,197.1c21.68,1.89,25.75,24.2,25.75,24.2,37.72-1.41,33.61,24.77,33.61,24.77a38.26,38.26,0,0,1-2.25,11.6v0s0,0,0,.05l-.28.68h0a8.76,8.76,0,0,1-1.1,1.81,28.75,28.75,0,0,0-10.54-12.47c-3.8,14.49-16,22.8-16,22.8a59.39,59.39,0,0,0,.42-20.55c-7.18,6.61-22.09,11.4-22.09,11.4,19.14-19.7,16.46-32,16.46-32C332,249.87,298.35,244,298.35,244c.15-.41.28-.81.4-1.21,0-.09.05-.18.08-.27.08-.31.16-.62.23-.91a1.55,1.55,0,0,1,0-.21c.07-.33.13-.66.17-1,0,0,0,0,0-.06a12.94,12.94,0,0,0-.25-5h0c-1.53-6.08-7.32-8.72-7.32-8.72,9.15-.85,25.17-4.54,23.64-11-1.2-5.08-8.61-5-8.61-5a25.74,25.74,0,0,1,8.47-2.61C305,204,297.28,209.4,287,213c-13,4.54-27.17-2.53-27.17-2.53C283.15,211.87,294.41,195,318.62,197.1Zm-99.65,10,1,.59q5.73,3.48,11,6.23,4.5,2.35,8.65,4.25c2.69,1.22,5.27,2.3,7.73,3.26,4.1,1.59,7.88,2.84,11.33,3.81,1.38.39,2.7.74,4,1,1.91.46,3.69.83,5.35,1.13,1.1.2,2.15.36,3.14.5a57.39,57.39,0,0,0,10.45.6,9.35,9.35,0,0,1,.86.8l.24.29c.17.19.33.39.48.59s.17.24.25.37.23.38.34.57.15.27.21.4.19.44.28.66a8.81,8.81,0,0,1,.28.87c0,.1.06.2.08.3s.09.46.13.69l0,.23q0,.38.06.75s0,.09,0,.14a7.67,7.67,0,0,1,0,1.08,2.34,2.34,0,0,1,0,.26,8,8,0,0,1-.18.85c0,.11-.07.22-.11.33s-.1.3-.16.44-.17.36-.26.53-.15.26-.23.39l-.32.45c-.06.07-.12.16-.19.23a4.76,4.76,0,0,1-.56.54l-.21.16a5.7,5.7,0,0,1-.71.45l-.11,0a6.74,6.74,0,0,1-.79.29l-.18,0a6,6,0,0,1-1,.16h-.21a7,7,0,0,1-1.11,0h0c-1.51-.17-3-.38-4.41-.62l-1.32-.23c-1-.18-2-.38-3-.58l-1.38-.31c-1-.23-2-.48-3-.74l-1.05-.27c-1.29-.36-2.55-.74-3.78-1.15l-.78-.27q-1.46-.5-2.85-1l-1.18-.46q-1.2-.48-2.37-1l-1.1-.47q-1.37-.61-2.67-1.26l-.54-.26c-1-.52-2.05-1.06-3-1.6l-.77-.45c-.73-.41-1.45-.83-2.14-1.25-.3-.17-.58-.35-.87-.53-.69-.43-1.37-.87-2-1.3l-.64-.43c-1.75-1.18-3.38-2.38-4.9-3.58l-.44-.34c-.62-.51-1.23-1-1.82-1.5l-.39-.33c-2.15-1.84-4-3.63-5.63-5.3h0a60.88,60.88,0,0,1-7.25-8.85l0,0-.06-.1,0,0Zm-31.19-10.34a54.94,54.94,0,0,1-3.43-31.43,45.36,45.36,0,0,1,10.48-22.24c-2.89,7.87-11.88,38.2,8.63,68.78A95,95,0,0,0,220.3,230.7C219.82,230.3,197.41,219.31,187.78,196.75Zm31.6,51-.14,0-.63-.18-1.07-.3h-.08l-.21-.06h0l-.15,0-.44-.14c-.91-.26-1.9-.57-3-.92h0l-1.07-.34-.05,0-.47-.16-.07,0-.45-.16-1.81-.62-.51-.18,0,0h0c-1.77-.63-3.66-1.36-5.64-2.16l-.41-.17-.06,0-.68-.28-1.71-.74-.94-.4-.08,0-.73-.32,0,0c-2.26-1-4.62-2.14-7-3.37l0,0-.61-.32-.19-.1,0,0c-1-.51-1.94-1-2.92-1.57h0l-.84-.47c-1-.56-2-1.13-3-1.73l-.8-.47q-2-1.25-4.1-2.61l.06,0h0l.1,0,.13,0c.52.22,1.92.83,4,1.69l.09,0h0l1.49.6.47.18,1.5.58.32.13.34.13,1.44.53.92.33,1.25.44.08,0,.07,0,.4.14.7.25,1.32.43,1.12.37.19.05h0l1.2.36.81.24.68.21,1.27.34.56.16.92.25,1.35.32.11,0,1.24.3h.07c.53.12,1,.22,1.58.32l1.17.23c.61.11,1.2.19,1.79.27l.91.14c.19,0,.37,0,.55.05l.61.53a103.25,103.25,0,0,0,9.78,7.42c.8.53,1.63,1.07,2.47,1.6-.36-.08-.87-.2-1.52-.37ZM173.81,409.93c-2.66-1.49-5.26-3.08-7.81-4.73,7.21-8.38,14-11.55,14-11.55S176.49,399.27,173.81,409.93Zm62,19.54q-3.6-.35-7.17-.86a155.09,155.09,0,0,1-19.54-4.09,92.32,92.32,0,0,1,3.55-14.19,29.64,29.64,0,0,1,23-19.42,50.84,50.84,0,0,0,6.74-1.65S236.93,404.17,235.85,429.47Zm37.84-.91a132.93,132.93,0,0,1,5.94-23.36,86.8,86.8,0,0,1,6.77,21Q280.09,427.63,273.69,428.56Zm15.47-41.68c-16.86-6.79-35.51-26.5-35.29-56.35l-5,24.32S196.21,381.41,168.63,338c0,0,9,23.07,19.89,31.89l-.1,0h0l-.29-.05h-.07l-.44-.05h-.08c-.18,0-.39-.05-.63-.07h-.07l-.81-.08H186a55.9,55.9,0,0,0-8,0c-1.32.08-2.72.21-4.2.41h-.08l-1.91.3-.13,0c-.64.11-1.3.24-2,.38l-.13,0c-.69.15-1.4.31-2.11.49a50.9,50.9,0,0,0-25.35,15.06c-1-1-2-1.93-2.93-2.91,1.6-15.3,7.31-51.73,26.67-74.16,8.42-9.75,27.73-16.19,56.49-40.32,1.25-1.08,2.48-2.21,3.65-3.37,2.27-2.24,6.26-6.13,8.82-8.38l.35-.31c.38-.32.72-.61,1-.83a45.73,45.73,0,0,0,4.36,2A67.49,67.49,0,0,0,253,263.22c1.39.51,2.8,1,4.22,1.45-1.42,1.76-6.11,8.21,2.35,8.35,1.7,0,4.06.07,6.77.29a58.66,58.66,0,0,1,12.14,2.46c6.69,2.14,14.13,6,18.46,13.1,9.2,15.06,2.76,46-5.18,59.84,0,0-5-11.46-12.69-16.2,0,0-8.93,17.47,9.39,34.2s26.68,29.4,29.62,46.58C318.09,413.29,307.67,394.33,289.16,386.88Z"/><path d="M351.52,423h-1.58V421.9h4.5V423h-1.6v4.74h-1.32Z"/><path d="M360,425.51c0-.7-.06-1.55-.06-2.4h0c-.19.75-.44,1.58-.66,2.26l-.72,2.29h-1l-.62-2.26c-.19-.69-.39-1.53-.53-2.29h0c0,.79-.06,1.69-.1,2.42l-.11,2.22h-1.22l.37-5.85H357l.58,2c.19.67.36,1.4.49,2.09h0c.15-.68.35-1.45.55-2.1l.62-2H361l.32,5.85h-1.29Z"/></g></svg>